<svg xmlns="http://www.w3.org/2000/svg" viewBox="0 -5.13894222 181.17382264 111.6951906"><g clip-rule="evenodd" fill-rule="evenodd"><path fill="#FFFFFF" d="m180.351 101.646a2.11 2.11 0 0 0 -1.468-.619c-.618 0-1.159.232-1.545.619-.387.424-.617.926-.617 1.545 0 .541.23 1.08.617 1.467.464.387 1.004.617 1.545.617a2.108 2.108 0 0 0 2.085-2.084c0-.62-.231-1.122-.617-1.545zm-1.468-.311c.463 0 .849.156 1.235.541.386.387.541.773.541 1.314s-.155.926-.541 1.234c-.387.387-.772.541-1.235.541-.541 0-.927-.154-1.313-.541-.387-.385-.541-.771-.541-1.234 0-.541.154-.928.541-1.314.387-.385.772-.541 1.313-.541z"/><path fill="#FFFFFF" d="m179.81 102.649-.386-.541-.618-.154h-.85v2.395h.463v-.926h.31l.463.076.232.541v.308h.386v-.541l-.154-.385-.386-.156.308-.154zm-1.081-.386.541.078.154.385-.232.311-.386.076h-.387v-.85zm-103.306-16.877c-.077-4.402-.077-7.145.078-8.496l-.232-.076-1.004.656-1.699-.193a19.02 19.02 0 0 0 -8.496-1.236c-1.776.078-3.476.465-5.059 1.236-1.622.695-3.089 1.738-4.441 3.012-2.741 2.859-4.054 6.566-3.978 11.084.078 4.402 1.467 7.879 4.326 10.35 2.703 2.395 6.063 3.477 10.157 3.322 2.857-.078 5.329-.85 7.415-2.24 1.622-1.004 2.781-2.316 3.553-3.785l.618-1.234-.387-.232c-1.313 1.93-2.935 3.475-4.866 4.518-1.777.889-3.785 1.275-5.948 1.121-2.549-.078-4.711-1.236-6.41-3.322-1.777-2.24-2.743-5.174-2.82-8.689-.115-3.861.618-7.027 2.201-9.576 1.7-2.703 4.094-4.094 7.106-4.133 2.394-.115 4.402.58 6.179 2.047 1.777 1.545 2.858 3.475 3.244 5.869h.463zm-54.608-2.78c-.309-1.855-1.235-3.322-2.857-4.365-1.661-1.273-4.016-1.814-6.835-1.736l-11.045.076v.502l.694.117.927.309 1.236.771c.386.387.54.773.54 1.313v21.588c0 .773-.618 1.469-1.776 2.164l-1.699.463v.463l6.913-.076 7.221.154c2.819-.078 5.06-.771 6.758-1.893 1.777-1.352 2.781-3.051 2.858-5.213.077-2.24-.695-4.172-2.471-5.639-1.622-1.352-3.476-2.047-5.6-2.125 1.506-.232 2.742-.85 3.746-1.854 1.236-1.312 1.7-2.935 1.39-5.019zm-6.912-3.322c1.159 1.004 1.777 2.395 1.777 4.094 0 1.932-.464 3.398-1.391 4.248-1.159 1.004-3.012 1.314-5.715 1.082v-10.428c.463-.23 1.004-.309 1.622-.385 1.467.001 2.703.463 3.707 1.389zm4.287 17.418c.077 1.158-.078 2.084-.464 2.934-.927 2.086-2.819 3.244-5.832 3.322-2.24 0-3.321-.85-3.321-2.625v-9.85l2.395-.23c2.857.23 4.943 1.273 6.217 3.283a6.67 6.67 0 0 1 1.005 3.166zm155.287-19.734v-.387h-11.702v.387l1.699.541c1.081.541 1.622 1.313 1.622 2.316v21.355c0 .889-.541 1.545-1.622 2.164l-1.699.539v.387h11.702v-.387l-1.623-.539-1.081-.773c-.386-.385-.617-.85-.617-1.391v-21.433c0-.848.54-1.621 1.698-2.238.619-.233 1.159-.426 1.623-.541zm-55.96-.272-3.631-.115-9.268.115v.271l1.622.541 1.081.771c.386.387.618.773.618 1.313v21.666c0 .541-.232.928-.618 1.313l-1.081.695-1.622.617v.387h11.276v-.387l-1.467-.539-1.004-.695c-.31-.387-.503-.773-.503-1.314v-10.619c0-.232.193-.387.387-.387.733 0 1.66.695 2.819 1.971l2.316 3.398 2.163 3.861 2.317 3.244c.889.928 1.814 1.391 2.741 1.467 2.009.232 4.094.232 6.18.078v-.465c-1.081-.152-2.009-.539-2.704-1.08l-1.544-1.854-2.086-3.322-2.316-3.707c-1.506-2.395-3.129-3.746-4.827-4.133 2.084-.076 3.784-.693 5.059-1.854 1.468-1.234 2.163-2.779 1.931-4.633-.231-1.932-1.158-3.477-2.742-4.674-1.466-1.156-3.165-1.813-5.097-1.93zm-2.78 1.2c1.468.076 2.704.539 3.707 1.506 1.005.965 1.545 2.277 1.622 3.977.078 1.545-.077 2.703-.54 3.553-.464.773-1.313 1.313-2.55 1.699l-2.162.232-1.776-.154v-10.468zm41.863 2.779c-2.781-2.549-6.488-3.861-11.045-4.094l-7.377.115-5.946-.115v.387l1.621.541 1.082.732c.386.387.54.813.54 1.352v21.666l-.54 1.391-1.082.695-1.621.463v.463l13.169.154c4.942.078 8.882-1.313 11.739-4.324a15.627 15.627 0 0 0 2.781-4.48c.54-1.545.85-3.129.85-4.826 0-4.173-1.391-7.571-4.171-10.12zm-10.659-2.434c2.703.502 4.789 1.893 6.41 3.979 1.623 2.162 2.396 4.789 2.472 7.955.078 3.205-.463 5.908-1.621 7.994-1.236 2.395-3.167 3.939-5.87 4.557l-2.086.232-2.047-.078c-.849-.23-1.467-.424-1.699-.693-.54-.465-.85-1.236-.926-2.395v-21.512c1.467-.424 3.321-.424 5.367-.039zm-106.241-2.045-4.21.115-8.572 24.406c-.386 1.158-1.082 1.932-2.009 2.473l-2.163.693v.387h9.269v-.387l-1.854-.693c-.541-.387-.85-.85-.85-1.545l.541-2.316 2.395-7.029h7.762l2.395 6.719.617 2.316c.078.773-.154 1.391-.772 1.777l-1.776.695v.463h12.049v-.463l-1.854-.541c-.85-.387-1.506-1.08-1.931-2.162zm-.231 14.133h-6.604l3.321-9.5zm51.749-14.017h-4.171l-8.612 24.406c-.386 1.158-1.004 1.932-2.008 2.473l-2.084.617v.463h9.152v-.387l-1.776-.693c-.618-.387-.927-.85-.85-1.545l.464-2.316 2.394-7.029h7.878l3.013 9.035c.077.773-.232 1.391-.772 1.777-.386.311-1.004.541-1.777.695v.463h11.931v-.463l-1.776-.541c-.811-.387-1.468-1.08-1.892-2.162zm-.155 14.017h-6.642l3.321-9.5z"/></g></svg>