<?xml version="1.0" encoding="utf-8"?>
<!-- Generator: Adobe Illustrator 24.1.0, SVG Export Plug-In . SVG Version: 6.00 Build 0)  -->
<svg version="1.1" id="Layer_1" xmlns="http://www.w3.org/2000/svg" xmlns:xlink="http://www.w3.org/1999/xlink" x="0px" y="0px"
	 width="506px" height="198px" viewBox="0 0 114.8694992 44.5990601" style="enable-background:new 0 0 114.8694992 44.5990601;" xml:space="preserve">
<style type="text/css">
	.st0{fill:#AA8E60;}
</style>
<g>
	<path class="st0" d="M4.4249992,43.9863892c0.6429977-0.0150146,1.1629982-0.1830444,1.5459976-0.5050049
		c0.3830032-0.3209839,0.5820007-0.75,0.5820007-1.2860107c0-1.2709961-0.8269997-1.8989868-2.4650002-1.8989868
		c-0.75,0-1.2859993,0.0310059-1.6079979,0.0769653v2.8630371c0,0.5050049,0.5970001,0.75,1.7910004,0.75H4.4249992z
		 M2.4799995,36.8213501v3.0310059c0.1989975,0.0159912,0.3829994,0.0310059,0.5819969,0.0310059
		c0.8420029,0,1.4850006-0.1220093,1.9290009-0.3670044c0.4900017-0.276001,0.7350006-0.7039795,0.7350006-1.302002v-0.0609741
		c-0.0309982-0.9030151-0.7350006-1.3930054-2.112999-1.4540405H3.428997
		C3.1229973,36.6993408,2.8019981,36.7443848,2.4799995,36.8213501 M0,36.4233398v-0.09198l4.1639977-0.0150146h0.0919991
		c1.1480026,0,2.0060005,0.2140503,2.5720024,0.6280518c0.4599991,0.3369751,0.6889954,0.7649536,0.6889954,1.3009644
		c0,0.4899902-0.2139969,0.8880005-0.6429977,1.1940308c-0.3829994,0.2609863-0.8419991,0.4289551-1.4079971,0.4749756
		c0.8419991,0.09198,1.5149994,0.3209839,2.0209961,0.6890259c0.5660019,0.4129639,0.8570023,0.93396,0.8570023,1.59198
		c0,0.9949951-0.6429977,1.6690063-1.9140015,2.0209961c-0.3669968,0.1069946-0.8569984,0.1680298-1.4849968,0.184021H4.6389999
		c-0.276001,0-0.689003,0-1.2250023-0.0159912c-0.9949989-0.0150146-1.5159988-0.0150146-1.5309982-0.0150146L0,44.3843994
		V44.293396c0.4439964-0.1080322,0.6739998-0.368042,0.6739998-0.7810059v-6.3080444
		C0.6739998,36.7913818,0.4439964,36.5303955,0,36.4233398"/>
	<path class="st0" d="M10.8238029,41.3231812h2.9399948l-1.4700012-3.1849976L10.8238029,41.3231812z M16.4888039,43.0221558
		c0.336998,0.7190552,0.7649994,1.1480103,1.2859955,1.2710571v0.09198
		c-0.6119995-0.0159912-1.1790009-0.0159912-1.6839981-0.0159912c-0.5050049,0-1.1019974,0-1.776001,0.0159912v-0.09198
		c0.2450027-0.0460205,0.3980026-0.1530151,0.4749985-0.3220215c0.0299988-0.0610352,0.0449982-0.1229858,0.0449982-0.1990356
		c0-0.09198-0.0299988-0.1989746-0.0909958-0.3209839l-0.7200012-1.5310059h-3.4599991l-0.4899979,1.0410156
		c-0.1679993,0.3670044-0.2600021,0.6430054-0.2600021,0.8109741v0.0310059
		c0.0149994,0.2449951,0.1839981,0.4130249,0.5049973,0.4900513v0.09198
		c-0.3519974-0.0159912-0.7350006-0.0159912-1.1790009-0.0159912c-0.2139969,0-0.6119995,0-1.2089996,0.0159912v-0.09198
		c0.5050049-0.1230469,0.9640045-0.5970459,1.3470001-1.4089966l3.1380005-6.6600342h0.9039993L16.4888039,43.0221558z"/>
	<path class="st0" d="M26.0725975,43.1445313c-0.9950027,0.9650269-2.2810059,1.4540405-3.8889999,1.4540405
		c-1.5,0-2.6940002-0.3670044-3.5820007-1.0870361c-0.9340057-0.75-1.4090042-1.8209839-1.4090042-3.1989746v-0.09198
		c0.0149994-1.2709961,0.5670013-2.2820435,1.6380005-3.0469971c0.9800034-0.6890259,2.1590042-1.0410156,3.5220032-1.0410156
		h0.060997c0.7959976,0.0150146,1.5770035,0.1220093,2.3270035,0.3369751
		c0.1529999,0.0460205,0.2910004,0.0759888,0.4289932,0.0759888c0.2140045,0,0.3980026-0.0609741,0.5510025-0.18396
		c0.0459976,0.0159912,0.076004,0.0159912,0.0920029,0.0159912v0.1530151c0,0.6740112,0.060997,1.407959,0.1679993,2.2199707
		l-0.1380005,0.0610352c-0.1679993-0.6270142-0.5350037-1.1630249-1.1169968-1.5770264
		c-0.628006-0.4439697-1.3480072-0.65802-2.1590042-0.6729736h-0.060997c-1.026001,0-1.8370056,0.3209839-2.4500046,0.9790039
		c-0.6279984,0.6589966-0.9489975,1.5619507-0.9489975,2.6949463c0,1.210022,0.3209991,2.1430054,0.9800034,2.802002
		c0.6119995,0.6280518,1.4389954,0.934021,2.4799957,0.9490356h0.060997c1.378006,0,2.4800034-0.3670044,3.3070068-1.117981
		L26.0725975,43.1445313z"/>
	<path class="st0" d="M28.5525017,41.3231812h2.9399948l-1.4700012-3.1849976L28.5525017,41.3231812z M34.2175026,43.0221558
		c0.336998,0.7190552,0.7649994,1.1480103,1.2859955,1.2710571v0.09198
		c-0.6119995-0.0159912-1.1790009-0.0159912-1.6839981-0.0159912c-0.5050049,0-1.1019974,0-1.776001,0.0159912v-0.09198
		c0.2450027-0.0460205,0.3980026-0.1530151,0.4749985-0.3220215c0.0299988-0.0610352,0.0459976-0.1229858,0.0459976-0.1990356
		c0-0.09198-0.0309982-0.1989746-0.0919952-0.3209839l-0.7200012-1.5310059h-3.4599991l-0.4899979,1.0410156
		c-0.1679993,0.3670044-0.2600021,0.6430054-0.2600021,0.8109741v0.0310059
		c0.0149994,0.2449951,0.1839981,0.4130249,0.5049973,0.4900513v0.09198
		c-0.3519974-0.0159912-0.7350006-0.0159912-1.1790009-0.0159912c-0.2139969,0-0.6119995,0-1.2089996,0.0159912v-0.09198
		c0.5050049-0.1230469,0.9640045-0.5970459,1.3470001-1.4089966l3.1389999-6.6600342h0.9029999L34.2175026,43.0221558z"/>
	<path class="st0" d="M39.2538948,39.9292603c0.8730011-0.1829834,1.302002-0.7349854,1.302002-1.6529541
		c0-0.4900513-0.1529999-0.8730469-0.4750061-1.1480103c-0.3209991-0.2609863-0.7649994-0.3989868-1.3159943-0.3989868
		c-0.2610016,0-0.5210037,0.0309448-0.7659988,0.0769653v3.2150269
		C38.534893,40.0213013,38.9638939,39.991272,39.2538948,39.9292603 M37.9988976,40.557251v2.9390259
		c0,0.4140015,0.2449951,0.6740112,0.7199936,0.7969971v0.0910034c-0.6589966-0.0150146-1.2099991-0.0150146-1.6230011-0.0150146
		c-0.3829956,0-0.9039993,0-1.5619965,0.0150146v-0.0910034c0.4440002-0.1079712,0.6740036-0.367981,0.6740036-0.7810059v-6.3079834
		c0-0.4130249-0.2300034-0.6740112-0.6740036-0.7810059v-0.09198c0.8880005,0.0159912,1.3779984,0.0159912,1.4550018,0.0159912
		c0.2900009,0,0.6429977-0.0159912,1.0709991-0.0310059c0.3980026-0.0150146,0.7350006-0.0150146,1.0110016-0.0150146
		c0.9639969,0,1.7449951,0.1680298,2.3569946,0.4899902c0.6130066,0.3370361,0.9190063,0.7960205,0.9340057,1.3770142v0.0460205
		c0,0.4749756-0.1529999,0.8889771-0.4589996,1.2559814c-0.3210068,0.3829956-0.7960052,0.6430054-1.4240036,0.8110352
		c0.2300034,0.2299805,0.6429977,0.7969971,1.2249985,1.6849976c0.6430054,0.9789429,0.9800034,1.4849854,1.0100021,1.5149536
		c0.3830032,0.4750366,0.7659988,0.75,1.1790009,0.8120117v0.0910034h-1.2549973
		c-0.9490051,0-1.6230011-0.3209839-2.0060043-0.9489746c-0.1070023-0.1830444-0.3209991-0.6119995-0.6429977-1.2709961
		c-0.2910004-0.56604-0.5360031-1.0100098-0.7350006-1.3010254s-0.4440002-0.4279785-0.7340012-0.4279785h-0.3679962
		C38.0448952,40.4353027,37.9988976,40.4802856,37.9988976,40.557251"/>
	<path class="st0" d="M47.6444969,44.00177c1.1170044,0,1.9749985-0.3209839,2.5719986-0.9489746
		s0.9029999-1.5310059,0.9029999-2.710022c0-1.0869751-0.336998-1.9439697-1.026001-2.5719604
		c-0.6889954-0.6279907-1.6529999-0.9650269-2.862999-1.0110474h-0.2449951c-0.2910004,0-0.5660019,0.0310059-0.8570023,0.0770264
		v6.2310181c0,0.4140015,0.1679993,0.6740112,0.5049973,0.8120117C46.8325005,43.9558105,47.1694984,44.00177,47.6444969,44.00177
		 M43.6635017,44.3847656v-0.09198c0.4439926-0.1069946,0.673996-0.3670044,0.673996-0.7810059v-6.3079834
		c0-0.4130249-0.2300034-0.6729736-0.673996-0.7800293v-0.09198c0.5969925,0.0150146,1.147995,0.0150146,1.6379929,0.0150146
		c0.1380005,0,0.5820007,0,1.3470001-0.0150146c0.3220062-0.0150146,0.5820007-0.0150146,0.7810059,0h0.4440002
		c1.5919952,0.0460205,2.862999,0.4440308,3.7969971,1.1790161c0.9339981,0.75,1.4090042,1.7299805,1.4090042,2.9389648
		c0,1.0720215-0.4140015,1.9750366-1.2560043,2.710022c-0.9639969,0.84198-2.3420029,1.2709961-4.1330032,1.2709961h-0.0619965
		c-0.1989975,0-0.5510025-0.0159912-1.0559998-0.0310059s-0.8880005-0.0299683-1.1640015-0.0299683
		C44.842495,44.369812,44.2604942,44.369812,43.6635017,44.3847656"/>
	<path class="st0" d="M56.2327995,37.2041626v6.3080444c0,0.4129639,0.2299957,0.6740112,0.673996,0.7810059v0.09198
		c-0.6589966-0.0159912-1.1949997-0.0159912-1.5770035-0.0159912c-0.3829956,0-0.9039993,0-1.5619965,0.0159912v-0.09198
		c0.4440002-0.1069946,0.6740036-0.368042,0.6740036-0.7810059v-6.3080444c0-0.4129639-0.2300034-0.6739502-0.6740036-0.7809448
		v-0.0910034c0.6579971,0.0149536,1.1790009,0.0149536,1.5619965,0.0149536c0.3820038,0,0.9180069,0,1.5770035-0.0149536v0.0910034
		C56.4627953,36.5302124,56.2327995,36.7911987,56.2327995,37.2041626"/>
	<path class="st0" d="M65.571701,43.9560547c0.9029999,0,1.6529999-0.1529541,2.2809982-0.4439697
		c0.6889954-0.3220215,1.1019974-0.7810059,1.2559967-1.3629761l0.137001,0.0619507
		c-0.1220016,0.8720093-0.1829987,1.6070557-0.1829987,2.2200317v0.1370239c-0.0149994,0-0.0309982,0.0159912-0.0770035,0.0309448
		c-0.1679993-0.1380005-0.5049973-0.1989746-0.9949951-0.2139893c-0.5660019-0.0159912-1.8370056-0.0159912-3.8280029-0.0159912
		c-0.6270027,0-1.2700005,0-1.9290047,0.0159912v-0.09198c0.4449997-0.1069946,0.6740036-0.367981,0.6740036-0.7810059v-6.3079834
		c0-0.4130249-0.2290039-0.6740112-0.6740036-0.7810059v-0.0910034c0.6590042,0.0150146,1.1949997,0.0150146,1.5770035,0.0150146
		c0.3829994,0,0.9040031,0,1.5620003-0.0150146v0.0910034c-0.4440002,0.1069946-0.6729965,0.367981-0.6729965,0.7810059v6.1090088
		C64.6996994,43.7410889,64.9897003,43.9560547,65.571701,43.9560547"/>
	<path class="st0" d="M72.3693008,37.2041626v6.3080444c0,0.4129639,0.2299957,0.6740112,0.673996,0.7810059v0.09198
		c-0.6589966-0.0159912-1.1950073-0.0159912-1.5770111-0.0159912c-0.382988,0-0.9039917,0-1.5619888,0.0159912v-0.09198
		c0.4440002-0.1069946,0.6740036-0.368042,0.6740036-0.7810059v-6.3080444c0-0.4129639-0.2300034-0.6739502-0.6740036-0.7809448
		v-0.0910034c0.6579971,0.0149536,1.1790009,0.0149536,1.5619888,0.0149536c0.3820038,0,0.9180145,0,1.5770111-0.0149536v0.0910034
		C72.5992966,36.5302124,72.3693008,36.7911987,72.3693008,37.2041626"/>
	<path class="st0" d="M84.3873978,43.8182373c0.1839905,0.2450562,0.4599915,0.3980103,0.8419952,0.4750366v0.0910034
		c-0.628006-0.0150146-1.3160095-0.0150146-2.0359955-0.0150146c-0.9190063,0-1.5620117,0-1.9290009,0.0150146v-0.0910034
		c0.4290009-0.1080322,0.719986-0.3070068,0.871994-0.5969849c0.0769958-0.1380005,0.1080017-0.3530273,0.1080017-0.644043
		c0-0.1679688-0.0160065-0.3519897-0.0310059-0.5509644l-0.5049896-5.0980225l-2.6640015,6.9810181h-0.352005l-2.6179962-6.6290283
		l-0.5360107,4.8080444c-0.0149994,0.1069946-0.0149994,0.1989746-0.0149994,0.3059692
		c0,0.3519897,0.076004,0.6430054,0.2140045,0.8880005c0.1679993,0.3209839,0.4440002,0.4890137,0.8269958,0.5360107v0.0910034
		c-0.5509949-0.0150146-1.0569916-0.0150146-1.5159912-0.0150146c-0.4750061,0-0.9649963,0-1.4700012,0.0150146v-0.0910034
		c0.4290009-0.09198,0.75-0.2910156,0.9799957-0.5969849c0.2149963-0.2910156,0.352005-0.6900024,0.3980103-1.1640015
		l0.5970001-5.4810181c-0.3210144-0.3060303-0.70401-0.5209961-1.1330109-0.6279907v-0.092041
		c0.628006,0.0160522,1.1179962,0.0160522,1.4700012,0.0160522c0.3209991,0,0.8110046,0,1.4850006-0.0160522l2.0980072,5.2980347
		l2.0049896-5.2980347c0.3680115,0.0160522,0.8420105,0.0160522,1.4090118,0.0160522c0.79599,0,1.3319855,0,1.6069946-0.0160522
		v0.092041c-0.2910004,0.0459595-0.5509949,0.18396-0.75,0.4140015c-0.1679993,0.197998-0.2600098,0.4279785-0.2600098,0.7039795
		c0,0.0460205,0,0.1069946,0.0150146,0.1680298c0.04599,0.4749756,0.2449951,2.2199707,0.5819855,5.2210083
		C84.127388,43.3132935,84.2193832,43.604248,84.3873978,43.8182373"/>
	<path class="st0" d="M88.38311,37.2041626v6.3080444c0,0.4129639,0.2299957,0.6740112,0.673996,0.7810059v0.09198
		c-0.6580048-0.0159912-1.1950073-0.0159912-1.5770111-0.0159912c-0.3829956,0-0.9039917,0-1.5619965,0.0159912v-0.09198
		c0.4440002-0.1069946,0.6740112-0.368042,0.6740112-0.7810059v-6.3080444c0-0.4129639-0.230011-0.6739502-0.6740112-0.7809448
		v-0.0910034c0.6580048,0.0149536,1.1790009,0.0149536,1.5619965,0.0149536c0.3820038,0,0.9190063,0,1.5770111-0.0149536v0.0910034
		C88.6131058,36.5302124,88.38311,36.7911987,88.38311,37.2041626"/>
	<path class="st0" d="M96.9718094,36.1479492v0.1530151c0,0.5969849,0.0609894,1.2399902,0.1839905,1.9290161l-0.1380005,0.0609741
		c-0.2599945-0.9949951-0.9640045-1.5-2.1279907-1.5h-0.5970001v6.6900024c0,0.1690063,0.0299988,0.3070068,0.1069946,0.4140015
		c0.1230011,0.1990356,0.3209991,0.3210449,0.6119995,0.3980103v0.092041
		c-0.6580048-0.0160522-1.2089996-0.0160522-1.6230011-0.0160522c-0.4129944,0-0.9490051,0-1.6069946,0.0160522v-0.092041
		c0.2910004-0.0769653,0.4899902-0.1989746,0.6129913-0.3980103c0.076004-0.1069946,0.1070099-0.2449951,0.1070099-0.4140015
		v-6.6900024h-0.6590118c-1.147995,0-1.8519897,0.5050049-2.1129913,1.5l-0.1370087-0.0609741
		c0.1220093-0.6890259,0.1829987-1.3320313,0.1829987-1.9290161v-0.1530151
		c0.0310059-0.0159912,0.0620117-0.0159912,0.0770111-0.0309448c0.1839905,0.1380005,0.5049896,0.2149658,0.9799957,0.2149658
		h5.0670013c0.4750061,0,0.8119965-0.0769653,0.9960022-0.2149658
		C96.9408035,36.131958,96.9567947,36.1479492,96.9718094,36.1479492"/>
	<path class="st0" d="M104.6880112,42.2106323c-0.1220093,0.8730469-0.1840057,1.6080322-0.1840057,2.2200317v0.1380005
		c-0.0310059,0.0150146-0.0610046,0.0150146-0.076004,0.0299683c-0.1689911-0.1369629-0.5050049-0.1989746-0.9949951-0.2139893
		c-0.5670013-0.0149536-1.8379974-0.0149536-3.8130035-0.0149536c-0.6269989,0-1.2700043,0-1.9290009,0.0149536v-0.09198
		c0.4440002-0.1069946,0.673996-0.3670044,0.673996-0.7810059v-6.3079834c0-0.4130249-0.2299957-0.6730347-0.673996-0.7800293
		v-0.09198c0.6589966,0.0150146,1.302002,0.0150146,1.9290009,0.0150146c1.7610016,0,2.9250031,0,3.4909973-0.0150146
		c0.4900055-0.0150146,0.8270111-0.0770264,0.9950104-0.2139893c0.04599,0.0150146,0.0609894,0.0299683,0.0769958,0.0299683
		v0.1380005c0,0.6119995,0.0610046,1.3470459,0.1829987,2.2200317l-0.1370087,0.0609741
		c-0.1689911-0.6279907-0.4440002-1.0709839-0.8269958-1.3629761c-0.4129944-0.2900391-1.0410004-0.4440308-1.8529968-0.4440308
		h-1.3930054v3.2160034h1.730011c0.6589966,0,1.0410004-0.3369751,1.1489868-1.026001h0.1520081
		c-0.0449982,0.4440308-0.0610046,0.8730469-0.0610046,1.2550049c0,0.3829956,0.0160065,0.8120117,0.0610046,1.2559814h-0.1520081
		c-0.1079865-0.6889648-0.4899902-1.0259399-1.1489868-1.0259399h-1.730011v2.8779907
		c0,0.4289551,0.3220062,0.6430054,0.9490051,0.6430054c0.8880005,0,1.6390076-0.1530151,2.2360077-0.4440308
		c0.6579895-0.3209839,1.0559998-0.7799683,1.2089996-1.3619995L104.6880112,42.2106323z"/>
	<path class="st0" d="M109.4334946,44.00177c1.1179962,0,1.9759979-0.3209839,2.571991-0.9489746
		c0.5980072-0.6279907,0.904007-1.5310059,0.904007-2.710022c0-1.0869751-0.3370056-1.9439697-1.026001-2.5719604
		s-1.6529999-0.9650269-2.8630066-1.0110474h-0.2449951c-0.2910004,0-0.5659943,0.0310059-0.8569946,0.0770264v6.2310181
		c0,0.4140015,0.1679993,0.6740112,0.5049896,0.8120117C108.6224899,43.9558105,108.9594955,44.00177,109.4334946,44.00177
		 M105.4534988,44.3847656v-0.09198c0.443985-0.1069946,0.673996-0.3670044,0.673996-0.7810059v-6.3079834
		c0-0.4130249-0.230011-0.6729736-0.673996-0.7800293v-0.09198c0.5969849,0.0150146,1.147995,0.0150146,1.6379852,0.0150146
		c0.1380005,0,0.5820007,0,1.3470001-0.0150146c0.3220062-0.0150146,0.5820007-0.0150146,0.7810059,0h0.4440002
		c1.5919952,0.0460205,2.8630066,0.4440308,3.7969971,1.1790161c0.9340057,0.75,1.4090118,1.7299805,1.4090118,2.9389648
		c0,1.0720215-0.4140015,1.9750366-1.256012,2.710022c-0.9639893,0.84198-2.3419952,1.2709961-4.1340027,1.2709961h-0.0609894
		c-0.1990051,0-0.5510101-0.0159912-1.0559998-0.0310059c-0.5059967-0.0150146-0.8880005-0.0299683-1.1640015-0.0299683
		C106.6324844,44.369812,106.0504837,44.369812,105.4534988,44.3847656"/>
	<path class="st0" d="M55.3855934,8.0390015c-0.0499954,0.0239868-0.1299973-0.0139771-0.1650009-0.098999
		c-0.0339966-0.085022-0.0239944-0.1669922,0.0139999-0.1929932c0.0470047-0.0319824,0.1060028-0.0200195,0.1590042,0.0849609
		C55.4445915,7.9400024,55.4445915,8.0079956,55.3855934,8.0390015 M67.2075958,22.2130127
		c0.262001-0.4450073,1.0470047-1.8040161,1.3440018-2.5510254c0.314003-0.6779785,0.5719986-1.4039917,0.7630005-2.164978
		c0.5670013-2.2310181,0.5930023-4.4880371,0.076004-6.5230103c-0.4930038-1.9500122-1.489006-3.7689819-3.2240067-5.9000244
		c-0.3919983-0.480957-0.5369949-0.8689575-0.4570007-1.2259521c0.0220032-0.0890503,0.0160065-0.1520386-0.0159988-0.177002
		c-0.0359955-0.0290527-0.1429977-0.0320435-0.3299942,0.0499878c-1.0530014,0.4710083-1.760006,1.473999-2.5060081,2.539978
		c-0.4769974,0.6829834-0.9690018,1.3870239-1.5919952,2.0120239c-0.6220016,0.6270142-1.7910004,1.4240112-2.4600067,1.0570068
		c-0.2389984-0.1310425-0.3539963-0.4769897-0.3619995-1.0870361V8.2080078l0.0270004-0.0200195
		C59.2885933,7.59198,59.733593,6.625,59.733593,6.1939697c0-0.052002-0.0059967-0.0979614-0.0219955-0.131958
		c-0.0100021-0.0320435-0.038002-0.0540161-0.0820007-0.0740356c-0.3190002-0.1349487-1.2540054,0.1080322-1.7809982,0.3270264
		L57.8035927,6.335022l-0.0309982-0.0400391c-0.4560013-0.5769653-0.7919998-0.8389893-0.9980011-0.782959
		c-0.1240005,0.0359497-0.2829971,0.2399902-0.3180008,1.0189819L56.4545937,6.572998l-0.0400009,0.0170288
		c-0.2999954,0.1369629-0.5540009,0.2709961-0.7939987,0.4209595C55.0315971,7.375,54.8145943,7.6140137,54.8415947,7.8569946
		c0.0230026,0.2119751,0.2160034,0.4890137,1.5070038,0.757019l0.048996,0.0119629l0.0049973,0.0490112
		c0.0160065,0.19104-0.0039978,0.3829956-0.0539932,0.5180054c-0.0470047,0.1229858-0.0910034,0.1600342-0.2140045,0.1719971
		c-0.9560013,0.0930176-1.7829971-0.2529907-2.6060028-1.09198c-0.5879974-0.6030273-1.0629959-1.2850342-1.5219955-1.9450073
		c-0.7549973-1.085022-1.4670029-2.1110229-2.5839996-2.625c-0.1399994-0.0640259-0.2659988-0.0830078-0.314003-0.0440063
		c-0.0339966,0.0300293-0.0379944,0.0950317-0.0130005,0.1879883c0.0890045,0.342041-0.0540009,0.7310181-0.4319992,1.1950073
		c-1.6849976,2.0690308-2.7210007,3.9570313-3.2569962,5.9349976c-0.4300003,1.565979-0.5699997,4.1890259,0.0749969,6.5200195
		C45.6955986,18.2789917,45.9585991,19,46.2645988,19.6660156c0.2929993,0.7359619,1.0499954,2.0469971,1.2959976,2.473999
		l-0.012001,0.1019897c-1.461998-1.7670288-4.0360031-6.0170288-2.8460007-11.4379883
		c0.4560013-2.0700073,1.6679993-3.9650269,3.3990021-6.0980225c0.4570007-0.5629883,0.6669998-1.5880127,1.5619965-1.164978
		c0.3160019,0.1489868,0.6040039,0.3059692,0.8759995,0.4779663c1.9869995-1.3399658,4.3290024-2.0570068,6.7789993-2.0570068
		c2.4910049,0,4.8690033,0.7440186,6.8790092,2.1260376c0.1769943-0.1359863,0.375-0.2659912,0.6139984-0.3950195
		c1.2099991-0.6690063,1.1689987,0.1350098,1.9179993,1.0430298c1.802002,2.1819458,2.9469986,4.032959,3.3669968,6.0789795
		c1.1740036,5.71698-1.3730011,9.8499756-2.8669968,11.4630127L67.2075958,22.2130127z M57.3185921,26.3150024
		c-3.2539978,0-6.3119965-1.2680054-8.6110001-3.5670166c-0.2429962-0.2420044-0.4729996-0.4949951-0.6940002-0.7529907
		c-0.3319931-0.4910278-0.9069977-1.3619995-1.2899933-2.4970093c-0.3950043-1.1740112-0.6060028-2.5230103-0.0149994-2.7869873
		c0.397995-0.1779785,0.8899994,0.2540283,1.5019989,1.3220215c0.125,0.2129517,0.1869965,0.355957,0.2409973,0.4819946
		l0.0339966,0.0789795c0.029007,0.0620117,0.0690002,0.1080322,0.114006,0.1199951
		c0.0239944,0.0079956,0.0439987,0.0040283,0.0639954-0.007019c0.0579987-0.0339966,0.038002-0.1489868-0.0099945-0.2399902
		c-0.0850067-0.1610107-0.1430054-0.2739868-0.2400055-0.506958c-0.5329971-1.2860107-1.2579956-3.8480225-0.1989975-4.3380127
		c0.1689987-0.0790405,0.3560028-0.0780029,0.5599976,0c0.6819992,0.2650146,1.413002,1.3980103,1.7160034,2.117981
		c0.1189957,0.2869873,0.1469955,0.4169922,0.1729965,0.5540161l0.0139999,0.0570068
		c0.012001,0.0669556,0.0450058,0.1220093,0.0870056,0.1439819c0.0199966,0.0130005,0.0419998,0.0130005,0.0629959,0.0050049
		c0.060997-0.0219727,0.0680008-0.1400146,0.0400009-0.2349854l-0.0049973-0.0120239
		c-0.0450058-0.1629639-0.0740051-0.2600098-0.1119995-0.5429688c-0.0910034-0.6860352,0.0619965-1.4450073,0.609993-1.5880127
		c0.6850052-0.1780396,1.3070068,0.572998,1.6320038,1.2739868c0.189003,0.4160156,0.3359985,0.9689941,0.3720016,1.4110107
		c0.0039978,0.0540161,0.0049973,0.1040039,0.0049973,0.1480103c0,0.2399902-0.0660019,0.3439941-0.25,0.4450073
		c-0.0910034,0.0499878-0.211998,0.09198-0.3300018,0.1369629c-0.0960007,0.0350342-0.1849976,0.0670166-0.2429962,0.0969849
		c-0.2070007,0.1110229-0.2740021,0.269043-0.2740021,0.4320068c0,0.1210327,0.0360031,0.2410278,0.0839996,0.348999
		c0.1090012,0.2490234,0.2610016,0.3760376,0.3889999,0.4570313c0.5410004-0.3890381,1.4079971-0.6990356,2.1450043-0.3250122
		c1.0769958,0.5490112,2.034996,3.1879883,2.3759995,6.5690308c0.0319977,0.3009644,0.0389938,0.4619751,0.0359955,0.6209717
		c0,0.0780029,0.0139999,0.1329956,0.0400009,0.1599731c0.0149994,0.0140381,0.0340042,0.0200195,0.0579987,0.0200195
		c0.0210037,0,0.0390015-0.0059814,0.0540009-0.0200195c0.0250015-0.0269775,0.0410004-0.0819702,0.0410004-0.1599731
		c0-0.1589966,0.0039978-0.3200073,0.0329971-0.6209717c0.3440018-3.3810425,1.3010025-6.0200195,2.3800049-6.5690308
		c0.7330017-0.3740234,1.6029968-0.0640259,2.1409988,0.3250122c0.1309967-0.0809937,0.2799988-0.2080078,0.3909988-0.4570313
		c0.0480042-0.1079712,0.0849991-0.2279663,0.0849991-0.348999c0-0.1629639-0.0680008-0.3209839-0.276001-0.4320068
		c-0.0559998-0.0299683-0.1459961-0.0619507-0.2409973-0.0969849c-0.1159973-0.0449829-0.2419968-0.0869751-0.3300018-0.1369629
		c-0.1879959-0.1020508-0.25-0.2050171-0.25-0.4630127c0-0.0380249,0.0019989-0.0809937,0.0040054-0.1290283
		c0.0269928-0.4649658,0.1449966-0.9589844,0.3379974-1.3880005c0.387001-0.8720093,1.1189957-1.4400024,1.6660004-1.2979736
		c0.5479965,0.1430054,0.6970024,0.9019775,0.6080055,1.5880127c-0.038002,0.282959-0.0640068,0.3800049-0.1100044,0.5429688
		l-0.0050049,0.0120239c-0.026001,0.0949707-0.0239944,0.2130127,0.0410004,0.2349854
		c0.0220032,0.0079956,0.0420036,0.0079956,0.0620079-0.0050049c0.0390015-0.0219727,0.072998-0.0770264,0.0879974-0.1439819
		l0.0130005-0.0759888c0.0270004-0.1310425,0.052002-0.2680054,0.1760025-0.5370483
		c0.2959976-0.664978,1.3579941-2.4899902,2.2669983-2.1170044c0.1910019,0.0770264,0.3339996,0.2300415,0.427002,0.4550171
		c0.375,0.9240112-0.1809998,2.8729858-0.6210022,3.8840332c-0.1019974,0.2359619-0.1539993,0.3479614-0.2389984,0.506958
		c-0.0490036,0.0910034-0.0690002,0.2059937-0.0110016,0.2399902c0.0199966,0.0110474,0.0410004,0.0150146,0.0629959,0.007019
		c0.0450058-0.0119629,0.0850067-0.0579834,0.1160049-0.1199951l0.0339966-0.0789795
		c0.0550003-0.1260376,0.1150055-0.269043,0.2389984-0.4819946c0.6130066-1.0679932,1.1030045-1.5,1.5040054-1.3220215
		c0.5919952,0.2639771,0.3769989,1.6129761-0.0169983,2.7869873c-0.1660004,0.4949951-0.3690033,0.94104-0.5730057,1.3250122
		c-0.4529953,0.6849976-0.9769974,1.3309937-1.572998,1.9249878C63.6285973,25.0469971,60.5715981,26.3150024,57.3185921,26.3150024
		 M58.3035927,6.7969971c0.0450058-0.0969849,0.2260056-0.1439819,0.2789993-0.0650024
		c0.0550003,0.072998-0.0159988,0.3759766-0.1769943,0.4609985C58.3175926,7.0120239,58.2635918,6.8930054,58.3035927,6.7969971
		 M56.823597,7.3729858c0.034996-0.1569824,0.1969986-0.3309937,0.4589996-0.3309937
		c0.2770004,0,0.397995,0.1870117,0.423996,0.3450317c0.0210037,0.125-0.0339966,0.1789551-0.1240005,0.1949463
		c-0.1319962,0.0280151-0.4929962,0.0280151-0.6539993-0.0189819C56.8145943,7.5289917,56.7985954,7.4769897,56.823597,7.3729858
		 M55.8375969,15.5299683c-0.2280045-0.0979614-0.4309998-0.1419678-0.7649994-0.1049805
		c-0.6750031,0.0690308-1.0709991,0.7860107-1.151001,1.8370361c0.2969971-0.5410156,0.7639999-0.9490356,1.3799973-0.94104
		c0.9069977,0.0120239,1.3740005,0.8740234,1.7590027,2.7620239c0.1849976,0.9099731,0.2740021,1.6300049,0.310997,2.382019
		c0.0250015-2.1020508,0.5589981-3.7820435,1.4830017-5.9180298c0.6520004-1.5200195,1.3150024-3.75,0.7099991-4.9760132
		c-0.2890015-0.5880127-0.5199966-0.7109985-0.8339996-0.9439697c0.4380035,0.1109619,0.8590012,0.2390137,1.4800034,0.5599976
		c1.0209961,0.5189819,1.810997,0.2910156,2.2369995-0.8710327c0.5759964-1.5689697,0.8449936-2.605957,1.409996-3.526001
		c0.3680077-0.5949707,0.656002-1.0089722,1.1400032-1.3949585c0.1190033-0.0950317,0.2259979-0.1630249,0.3079987-0.118042
		c0.0690002,0.0380249,0.0580063,0.1199951,0.0830002,0.2290039c0.0360031,0.1470337,0.1650009,0.3800049,0.3990021,0.6680298
		c0.7389984,0.9099731,1.776001,2.71698,2.2649994,4.4389648c0.6870041,2.4240112,0.375,4.8959961-0.336998,6.2950439
		c-0.0480042,0.0969849-0.0879974,0.1049805-0.0569992-0.0050049c0.7929993-2.9110107,0.2919998-6.3040161-1.526001-9.2969971
		c0.4339981,2.9439697-0.2129974,5.75-1.1309967,7.3639526c-0.0370026,0.0650024-0.0670013,0.0460205-0.0440063-0.0179443
		c1.0330048-2.8250122,1.1070023-7.5930176,0.1620026-8.7880249c-0.1220016-0.1489868-0.1969986-0.1530151-0.3150024-0.03302
		c-0.6259995,0.6310425-1.132,2.3760376-1.4070015,3.9819946c-0.435997,2.5150146-1.060997,3.2530518-1.6529999,3.3660278
		C61.457592,12.53302,61.1655922,12.4559937,60.945591,12.25c-0.2389984-0.2189941-0.5129929-0.632019-0.7139969-1.0880127
		c0.2910004,1.5180054-0.0149994,2.5759888-0.5009995,3.5490112c-0.0960007,0.2000122-0.1429977,0.3920288-0.098999,0.427002
		c0.0479965,0.039978,0.1620026,0.0059814,0.4079971-0.117981c0.3380051-0.1690063,0.5579987-0.1459961,0.7649994,0.1399536
		c0.215004,0.2960205,0.3500061,1.0300293,0.3810043,1.8390503c0.0239944,0.539978,0.0459976,0.6699829,0.3639984,0.7589722
		c0.3539963,0.0969849,0.7429962,0.2470093,0.6579971,0.6099854c-0.3889999-0.1469727-1.0219955-0.25-1.4049988-0.2849731
		c-0.0250015-0.5220337-0.4420013-1.3129883-1.197998-1.2260132c-1.0100021,0.117981-1.6360016,1.8920288-1.9639969,3.9749756
		c-0.1460037,0.9330444-0.1850052,1.8440552-0.2639999,2.8720093c-0.1150055-1.0009766-0.137001-1.93396-0.2800064-2.8670044
		c-0.3320007-2.0849609-0.9419937-3.8549805-1.9509964-3.9719849c-0.7580032-0.0869751-1.1800003,0.6600342-1.201004,1.2180176
		c-0.3689957,0.0209961-1.034996,0.1450195-1.4249954,0.2919922c-0.0920029-0.3920288,0.3619995-0.5280151,0.6760025-0.6170044
		c0.3169937-0.0880127,0.3299942-0.3109741,0.348999-0.7520142c0.0319977-0.80896,0.1779938-1.5599976,0.3949966-1.8540039
		c0.1740036-0.2420044,0.3880005-0.3049927,0.7460022-0.131958c0.2490005,0.117981,0.362999,0.1560059,0.4109955,0.1170044
		c0.0450058-0.0350342-0.0199966-0.2560425-0.1229935-0.4040527c-0.3930054-0.5669556-0.7900009-1.4469604-0.779007-2.3289795
		c0.003006-0.2630005-0.2399979-0.1829834-0.3699951-0.09198c-0.1760025,0.1239624-0.4449997,0.2459717-0.7730026,0.1829834
		c-0.7900009-0.151001-1.2859955-0.9840088-1.6989975-3.382019c-0.276001-1.605957-0.7890015-3.34198-1.413002-3.9749756
		c-0.1169968-0.117981-0.2050018-0.1259766-0.3239975,0.026001c-0.9459991,1.2130127-0.8720016,5.9630127,0.163002,8.7880249
		c0.0219955,0.0639648-0.0060043,0.0829468-0.0440063,0.0179443c-0.9209976-1.6139526-1.5680008-4.4619751-1.1309967-7.4059448
		c-1.9329987,3.2469482-2.2770004,6.6089478-1.5329971,9.3319702c0.0309982,0.1090088-0.0100021,0.1049805-0.0590057,0.007019
		c-0.7029953-1.4200439-1.0049973-3.8660278-0.3159943-6.2900391c0.4889984-1.7219849,1.5019989-3.5339966,2.2439957-4.4419556
		c0.2350006-0.2900391,0.3670044-0.5540161,0.4049988-0.6600342c0.0400009-0.1049805,0.0080032-0.1759644,0.0730057-0.2290039
		c0.0649948-0.052002,0.2059937,0.0270386,0.3249969,0.118042c0.4830017,0.3880005,0.7819977,0.7949829,1.1490021,1.3899536
		c0.5649948,0.9200439,0.8359985,1.9570313,1.409996,3.526001c0.4240036,1.1620483,1.2180023,1.3900146,2.2360001,0.8710327
		c0.7030029-0.3630371,1.0620041-0.4899902,1.6880035-0.6000366c0.1589966-0.0279541,0.2599945-0.0549927,0.2900009-0.1049805
		c0.0239944-0.0369873,0.0159988-0.1190186,0.0279999-0.315979c0.0079956-0.098999,0.0089951-0.1669922,0.022995-0.2380371
		c0.0130005-0.0759888,0.0790024-0.0700073,0.090004-0.0059814c0.0329971,0.1929932,0.0579987,0.3870239,0.0939941,0.6079712
		c0.0180054,0.0990601,0.0130005,0.1240234-0.0809937,0.1550293c-0.6360016,0.2069702-1.0559998,0.4370117-1.3500061,0.9219971
		C54.6515923,11.7150269,55.4775963,14.3880005,55.8375969,15.5299683 M67.3906021,4.1419678
		C64.7205963,1.4710083,61.1695976,0,57.3955956,0c-3.7789993,0-7.3280029,1.4710083-9.9990005,4.1419678
		c-2.6719971,2.6700439-4.1429977,6.2190552-4.1429977,9.9950562c0,3.7769775,1.4710007,7.3269653,4.1429977,10
		c2.6709976,2.6669922,6.2200012,4.1409912,9.9990005,4.1409912c3.7740021,0,7.3250008-1.473999,9.9950066-4.1409912
		c2.6729965-2.6730347,4.1419983-6.2230225,4.1419983-10C71.5326004,10.3610229,70.0635986,6.8120117,67.3906021,4.1419678"/>
	<path class="st0" d="M65.9991989,28.4272461h0.2290039v-0.5059814h0.1759949c0.1220016,0,0.2060013,0.0139771,0.2539978,0.0419922
		c0.0810013,0.0479736,0.1200027,0.1469727,0.1200027,0.2949829v0.1019897l0.0039978,0.0400391
		c0.0020065,0.0059814,0.0050049,0.0109863,0.0050049,0.0149536c0,0.0030518,0.0019989,0.0090332,0.0019989,0.0120239h0.211998
		l-0.0079956-0.0130005c-0.0040054-0.0120239-0.0080032-0.0349731-0.0100021-0.0689697
		c-0.0029984-0.0350342-0.0029984-0.06604-0.0029984-0.0960083v-0.0939941c0-0.06604-0.0220032-0.1310425-0.0690002-0.2000122
		c-0.0480042-0.0670166-0.1220016-0.1080322-0.2229996-0.125c0.0789948-0.0120239,0.1429977-0.03302,0.185997-0.0629883
		c0.0849991-0.0530396,0.1269989-0.1380005,0.1269989-0.2530518c0-0.1619873-0.0649948-0.2689819-0.2009964-0.3249512
		c-0.0719986-0.0310059-0.1900024-0.0460205-0.348999-0.0460205h-0.4520035V28.4272461z M66.6462021,27.7342529
		c-0.0480042,0.0200195-0.1180038,0.0299683-0.2140045,0.0299683h-0.2039948v-0.46698h0.1919937
		c0.1259995,0,0.2180023,0.0159912,0.2720032,0.0480347c0.0599976,0.0319824,0.0859985,0.0939941,0.0859985,0.1869507
		C66.7781982,27.6312256,66.7361984,27.6982422,66.6462021,27.7342529 M67.3031998,26.9632568
		c-0.2290039-0.2290039-0.5060043-0.3430176-0.8300018-0.3430176c-0.3219986,0-0.6009979,0.1140137-0.8279953,0.3430176
		c-0.227005,0.2279663-0.340004,0.5029907-0.340004,0.8259888c0,0.3239746,0.1119995,0.6019897,0.3389969,0.8300171
		c0.227005,0.2299805,0.5040054,0.3439941,0.8290024,0.3439941c0.3239975,0,0.6009979-0.1140137,0.8300018-0.3439941
		c0.2269974-0.2290039,0.3440018-0.5060425,0.3440018-0.8300171C67.6472015,27.4642334,67.5301971,27.1912231,67.3031998,26.9632568
		 M67.186203,27.0742188c0.1959991,0.1980591,0.2949982,0.4360352,0.2949982,0.7150269s-0.098999,0.5189819-0.2949982,0.7160034
		c-0.1960068,0.1989746-0.4340057,0.2960205-0.7130051,0.2960205c-0.2809982,0-0.5169983-0.0970459-0.7159958-0.2960205
		c-0.1959991-0.1970215-0.2929993-0.4370117-0.2929993-0.7160034s0.0979996-0.5169678,0.2959976-0.7150269
		c0.197998-0.1969604,0.4349976-0.2949829,0.7129974-0.2949829C66.7521973,26.7792358,66.9891968,26.8772583,67.186203,27.0742188"
		/>
</g>
</svg>
